<svg width="98" height="69" viewBox="0 0 98 69" fill="none" xmlns="http://www.w3.org/2000/svg">
<circle cx="1.81481" cy="1.81481" r="1.81481" fill="#D9D9D9"/>
<circle cx="1.81481" cy="9.07409" r="1.81481" fill="#D9D9D9"/>
<circle cx="1.81481" cy="16.3334" r="1.81481" fill="#D9D9D9"/>
<circle cx="1.81481" cy="23.5926" r="1.81481" fill="#D9D9D9"/>
<circle cx="1.81481" cy="30.8518" r="1.81481" fill="#D9D9D9"/>
<circle cx="1.81481" cy="38.1111" r="1.81481" fill="#D9D9D9"/>
<circle cx="1.81481" cy="45.3704" r="1.81481" fill="#D9D9D9"/>
<circle cx="1.81481" cy="52.6296" r="1.81481" fill="#D9D9D9"/>
<circle cx="1.81481" cy="59.8889" r="1.81481" fill="#D9D9D9"/>
<circle cx="1.81481" cy="67.1482" r="1.81481" fill="#D9D9D9"/>
<circle cx="9.07409" cy="1.81481" r="1.81481" fill="#D9D9D9"/>
<circle cx="9.07409" cy="9.07409" r="1.81481" fill="#D9D9D9"/>
<circle cx="9.07409" cy="16.3334" r="1.81481" fill="#D9D9D9"/>
<circle cx="9.07409" cy="23.5926" r="1.81481" fill="#D9D9D9"/>
<circle cx="9.07409" cy="30.8518" r="1.81481" fill="#D9D9D9"/>
<circle cx="9.07409" cy="38.1111" r="1.81481" fill="#D9D9D9"/>
<circle cx="9.07409" cy="45.3704" r="1.81481" fill="#D9D9D9"/>
<circle cx="9.07409" cy="52.6296" r="1.81481" fill="#D9D9D9"/>
<circle cx="9.07409" cy="59.8889" r="1.81481" fill="#D9D9D9"/>
<circle cx="9.07409" cy="67.1482" r="1.81481" fill="#D9D9D9"/>
<circle cx="16.3334" cy="1.81481" r="1.81481" fill="#D9D9D9"/>
<circle cx="16.3334" cy="9.07409" r="1.81481" fill="#D9D9D9"/>
<circle cx="16.3334" cy="16.3334" r="1.81481" fill="#D9D9D9"/>
<circle cx="16.3334" cy="23.5926" r="1.81481" fill="#D9D9D9"/>
<circle cx="16.3334" cy="30.8518" r="1.81481" fill="#D9D9D9"/>
<circle cx="16.3334" cy="38.1111" r="1.81481" fill="#D9D9D9"/>
<circle cx="16.3334" cy="45.3704" r="1.81481" fill="#D9D9D9"/>
<circle cx="16.3334" cy="52.6296" r="1.81481" fill="#D9D9D9"/>
<circle cx="16.3334" cy="59.8889" r="1.81481" fill="#D9D9D9"/>
<circle cx="16.3334" cy="67.1482" r="1.81481" fill="#D9D9D9"/>
<circle cx="23.5926" cy="1.81481" r="1.81481" fill="#D9D9D9"/>
<circle cx="23.5926" cy="9.07409" r="1.81481" fill="#D9D9D9"/>
<circle cx="23.5926" cy="16.3334" r="1.81481" fill="#D9D9D9"/>
<circle cx="23.5926" cy="23.5926" r="1.81481" fill="#D9D9D9"/>
<circle cx="23.5926" cy="30.8518" r="1.81481" fill="#D9D9D9"/>
<circle cx="23.5926" cy="38.1111" r="1.81481" fill="#D9D9D9"/>
<circle cx="23.5926" cy="45.3704" r="1.81481" fill="#D9D9D9"/>
<circle cx="23.5926" cy="52.6296" r="1.81481" fill="#D9D9D9"/>
<circle cx="23.5926" cy="59.8889" r="1.81481" fill="#D9D9D9"/>
<circle cx="23.5926" cy="67.1482" r="1.81481" fill="#D9D9D9"/>
<circle cx="30.8519" cy="1.81481" r="1.81481" fill="#D9D9D9"/>
<circle cx="30.8519" cy="9.07409" r="1.81481" fill="#D9D9D9"/>
<circle cx="30.8519" cy="16.3334" r="1.81481" fill="#D9D9D9"/>
<circle cx="30.8519" cy="23.5926" r="1.81481" fill="#D9D9D9"/>
<circle cx="30.8519" cy="30.8518" r="1.81481" fill="#D9D9D9"/>
<circle cx="30.8519" cy="38.1111" r="1.81481" fill="#D9D9D9"/>
<circle cx="30.8519" cy="45.3704" r="1.81481" fill="#D9D9D9"/>
<circle cx="30.8519" cy="52.6296" r="1.81481" fill="#D9D9D9"/>
<circle cx="30.8519" cy="59.8889" r="1.81481" fill="#D9D9D9"/>
<circle cx="30.8519" cy="67.1482" r="1.81481" fill="#D9D9D9"/>
<circle cx="38.1112" cy="1.81481" r="1.81481" fill="#D9D9D9"/>
<circle cx="38.1112" cy="9.07409" r="1.81481" fill="#D9D9D9"/>
<circle cx="38.1112" cy="16.3334" r="1.81481" fill="#D9D9D9"/>
<circle cx="38.1112" cy="23.5926" r="1.81481" fill="#D9D9D9"/>
<circle cx="38.1112" cy="30.8518" r="1.81481" fill="#D9D9D9"/>
<circle cx="38.1112" cy="38.1111" r="1.81481" fill="#D9D9D9"/>
<circle cx="38.1112" cy="45.3704" r="1.81481" fill="#D9D9D9"/>
<circle cx="38.1112" cy="52.6296" r="1.81481" fill="#D9D9D9"/>
<circle cx="38.1112" cy="59.8889" r="1.81481" fill="#D9D9D9"/>
<circle cx="38.1112" cy="67.1482" r="1.81481" fill="#D9D9D9"/>
<circle cx="45.3705" cy="1.81481" r="1.81481" fill="#D9D9D9"/>
<circle cx="45.3705" cy="9.07409" r="1.81481" fill="#D9D9D9"/>
<circle cx="45.3705" cy="16.3334" r="1.81481" fill="#D9D9D9"/>
<circle cx="45.3705" cy="23.5926" r="1.81481" fill="#D9D9D9"/>
<circle cx="45.3705" cy="30.8518" r="1.81481" fill="#D9D9D9"/>
<circle cx="45.3705" cy="38.1111" r="1.81481" fill="#D9D9D9"/>
<circle cx="45.3705" cy="45.3704" r="1.81481" fill="#D9D9D9"/>
<circle cx="45.3705" cy="52.6296" r="1.81481" fill="#D9D9D9"/>
<circle cx="45.3705" cy="59.8889" r="1.81481" fill="#D9D9D9"/>
<circle cx="45.3705" cy="67.1482" r="1.81481" fill="#D9D9D9"/>
<circle cx="52.6295" cy="1.81481" r="1.81481" fill="#D9D9D9"/>
<circle cx="52.6295" cy="9.07409" r="1.81481" fill="#D9D9D9"/>
<circle cx="52.6295" cy="16.3334" r="1.81481" fill="#D9D9D9"/>
<circle cx="52.6295" cy="23.5926" r="1.81481" fill="#D9D9D9"/>
<circle cx="52.6295" cy="30.8518" r="1.81481" fill="#D9D9D9"/>
<circle cx="52.6295" cy="38.1111" r="1.81481" fill="#D9D9D9"/>
<circle cx="52.6295" cy="45.3704" r="1.81481" fill="#D9D9D9"/>
<circle cx="52.6295" cy="52.6296" r="1.81481" fill="#D9D9D9"/>
<circle cx="52.6295" cy="59.8889" r="1.81481" fill="#D9D9D9"/>
<circle cx="52.6295" cy="67.1482" r="1.81481" fill="#D9D9D9"/>
<circle cx="59.8888" cy="1.81481" r="1.81481" fill="#D9D9D9"/>
<circle cx="67.1481" cy="1.81481" r="1.81481" fill="#D9D9D9"/>
<circle cx="74.4073" cy="1.81481" r="1.81481" fill="#D9D9D9"/>
<circle cx="81.6666" cy="1.81481" r="1.81481" fill="#D9D9D9"/>
<circle cx="88.9259" cy="1.81481" r="1.81481" fill="#D9D9D9"/>
<circle cx="96.1852" cy="1.81481" r="1.81481" fill="#D9D9D9"/>
<circle cx="59.8888" cy="9.07409" r="1.81481" fill="#D9D9D9"/>
<circle cx="67.1481" cy="9.07409" r="1.81481" fill="#D9D9D9"/>
<circle cx="74.4073" cy="9.07409" r="1.81481" fill="#D9D9D9"/>
<circle cx="81.6666" cy="9.07409" r="1.81481" fill="#D9D9D9"/>
<circle cx="88.9259" cy="9.07409" r="1.81481" fill="#D9D9D9"/>
<circle cx="96.1852" cy="9.07409" r="1.81481" fill="#D9D9D9"/>
<circle cx="59.8888" cy="16.3334" r="1.81481" fill="#D9D9D9"/>
<circle cx="67.1481" cy="16.3334" r="1.81481" fill="#D9D9D9"/>
<circle cx="74.4073" cy="16.3334" r="1.81481" fill="#D9D9D9"/>
<circle cx="81.6666" cy="16.3334" r="1.81481" fill="#D9D9D9"/>
<circle cx="88.9259" cy="16.3334" r="1.81481" fill="#D9D9D9"/>
<circle cx="96.1852" cy="16.3334" r="1.81481" fill="#D9D9D9"/>
<circle cx="59.8888" cy="23.5926" r="1.81481" fill="#D9D9D9"/>
<circle cx="67.1481" cy="23.5926" r="1.81481" fill="#D9D9D9"/>
<circle cx="74.4073" cy="23.5926" r="1.81481" fill="#D9D9D9"/>
<circle cx="81.6666" cy="23.5926" r="1.81481" fill="#D9D9D9"/>
<circle cx="88.9259" cy="23.5926" r="1.81481" fill="#D9D9D9"/>
<circle cx="96.1852" cy="23.5926" r="1.81481" fill="#D9D9D9"/>
<circle cx="59.8888" cy="30.8518" r="1.81481" fill="#D9D9D9"/>
<circle cx="67.1481" cy="30.8518" r="1.81481" fill="#D9D9D9"/>
<circle cx="74.4073" cy="30.8518" r="1.81481" fill="#D9D9D9"/>
<circle cx="81.6666" cy="30.8518" r="1.81481" fill="#D9D9D9"/>
<circle cx="88.9259" cy="30.8518" r="1.81481" fill="#D9D9D9"/>
<circle cx="96.1852" cy="30.8518" r="1.81481" fill="#D9D9D9"/>
<circle cx="59.8888" cy="38.1111" r="1.81481" fill="#D9D9D9"/>
<circle cx="67.1481" cy="38.1111" r="1.81481" fill="#D9D9D9"/>
<circle cx="74.4073" cy="38.1111" r="1.81481" fill="#D9D9D9"/>
<circle cx="81.6666" cy="38.1111" r="1.81481" fill="#D9D9D9"/>
<circle cx="88.9259" cy="38.1111" r="1.81481" fill="#D9D9D9"/>
<circle cx="96.1852" cy="38.1111" r="1.81481" fill="#D9D9D9"/>
<circle cx="59.8888" cy="45.3704" r="1.81481" fill="#D9D9D9"/>
<circle cx="67.1481" cy="45.3704" r="1.81481" fill="#D9D9D9"/>
<circle cx="74.4073" cy="45.3704" r="1.81481" fill="#D9D9D9"/>
<circle cx="81.6666" cy="45.3704" r="1.81481" fill="#D9D9D9"/>
<circle cx="88.9259" cy="45.3704" r="1.81481" fill="#D9D9D9"/>
<circle cx="96.1852" cy="45.3704" r="1.81481" fill="#D9D9D9"/>
<circle cx="59.8888" cy="52.6296" r="1.81481" fill="#D9D9D9"/>
<circle cx="67.1481" cy="52.6296" r="1.81481" fill="#D9D9D9"/>
<circle cx="74.4073" cy="52.6296" r="1.81481" fill="#D9D9D9"/>
<circle cx="81.6666" cy="52.6296" r="1.81481" fill="#D9D9D9"/>
<circle cx="88.9259" cy="52.6296" r="1.81481" fill="#D9D9D9"/>
<circle cx="96.1852" cy="52.6296" r="1.81481" fill="#D9D9D9"/>
<circle cx="59.8888" cy="59.8889" r="1.81481" fill="#D9D9D9"/>
<circle cx="67.1481" cy="59.8889" r="1.81481" fill="#D9D9D9"/>
<circle cx="74.4073" cy="59.8889" r="1.81481" fill="#D9D9D9"/>
<circle cx="81.6666" cy="59.8889" r="1.81481" fill="#D9D9D9"/>
<circle cx="88.9259" cy="59.8889" r="1.81481" fill="#D9D9D9"/>
<circle cx="96.1852" cy="59.8889" r="1.81481" fill="#D9D9D9"/>
<circle cx="59.8888" cy="67.1482" r="1.81481" fill="#D9D9D9"/>
<circle cx="67.1481" cy="67.1482" r="1.81481" fill="#D9D9D9"/>
<circle cx="74.4073" cy="67.1482" r="1.81481" fill="#D9D9D9"/>
<circle cx="81.6666" cy="67.1482" r="1.81481" fill="#D9D9D9"/>
<circle cx="88.9259" cy="67.1482" r="1.81481" fill="#D9D9D9"/>
<circle cx="96.1852" cy="67.1482" r="1.81481" fill="#D9D9D9"/>
</svg>
