<svg width="42" height="61" viewBox="0 0 42 61" fill="none" xmlns="http://www.w3.org/2000/svg">
<path d="M40.0001 16.8088H21.0264V22.934H32.1853L40.0001 16.8088Z" fill="#C1C1C1" stroke="white"/>
<path d="M22.1864 7.57007H21.2967L8.51737 15.3344V15.6609C9.03465 15.8359 9.52084 16.024 10.0527 16.2526C10.688 16.488 11.2316 16.8807 11.6742 17.3401L11.7133 17.3807L11.7424 17.429C11.9229 17.7287 12.0924 18.104 12.1913 18.4911C12.2899 18.7147 12.3302 18.9286 12.3549 19.1097L12.3563 19.1197L12.3562 19.1198C12.3802 19.3259 12.3971 19.5367 12.3824 19.729M22.1864 7.57007L12.2035 47.3021L12.7025 47.3326C12.7026 47.3319 12.7026 47.3311 12.7027 47.3303C12.9353 43.5276 12.8455 36.7592 12.7033 30.8848C12.6321 27.9428 12.5475 25.2181 12.4831 23.1914C12.475 22.9372 12.4672 22.6941 12.4598 22.4629C12.4377 21.772 12.4191 21.188 12.4055 20.7353C12.3965 20.4331 12.3898 20.1908 12.3859 20.015C12.384 19.927 12.3828 19.857 12.3823 19.8053C12.3819 19.7579 12.3822 19.7354 12.3824 19.729M22.1864 7.57007V51.9776V52.4776H22.5246L25.4435 54.9904L25.7405 55.2461L26.0598 55.0187L28.0232 53.6201L28.4692 54.1414L19.2635 59.7067L10.9827 53.5866L10.7039 53.3805L10.4131 53.5694C9.83028 53.9481 8.96158 54.3764 7.86048 54.4803C5.51139 54.6202 3.89276 54.0831 2.75628 53.2892C2.70236 53.2515 2.64942 53.2132 2.59745 53.1743L22.1864 7.57007ZM12.3824 19.729C12.3821 19.7325 12.3818 19.736 12.3815 19.7394L11.8833 19.6981L12.3824 19.7271L12.3824 19.7274C12.3824 19.7277 12.3824 19.7282 12.3824 19.729ZM11.2617 51.453C11.2621 51.4525 11.2624 51.4521 11.2628 51.4516L10.8634 51.1507L11.2607 51.4543C11.261 51.4539 11.2614 51.4534 11.2617 51.453ZM0.614578 51.7279C0.369356 51.339 0.167681 50.9434 0 50.5585C0.0713355 50.616 0.189579 50.7162 0.339693 50.8435C0.520846 50.997 0.748402 51.1898 0.995957 51.3945L0.614578 51.7279Z" fill="#C1C1C1" stroke="white"/>
<path d="M9.99757 10.7068L5.26341 4.74884L12.2321 0.645265L16.9663 6.60324L9.99757 10.7068Z" fill="#C1C1C1" stroke="white"/>
</svg>
