<svg width="35" height="25" viewBox="0 0 35 25" fill="none" xmlns="http://www.w3.org/2000/svg">
<path d="M17.5002 0.375C12.994 0.375 9.45024 3.79844 8.95478 8.16797C8.00173 8.32154 7.10794 8.72993 6.368 9.34991C5.62807 9.96989 5.06953 10.7784 4.75149 11.6898C2.06087 12.4653 0.000244141 14.865 0.000244141 17.875C0.000244141 21.5106 2.92712 24.4375 6.56274 24.4375H28.4377C32.0734 24.4375 35.0002 21.5106 35.0002 17.875C35.0002 15.95 34.0651 14.2263 32.7099 13.0209C32.4562 9.1775 29.3904 6.11063 25.5327 5.91156C24.2159 2.70797 21.1949 0.375 17.5002 0.375ZM17.5002 2.5625C20.5212 2.5625 22.9362 4.49844 23.7893 7.24375L24.0299 8.03125H25.1565C28.1698 8.03125 30.6252 10.4867 30.6252 13.5V14.0469L31.0693 14.3892C31.6053 14.8 32.0407 15.3273 32.3428 15.9312C32.6448 16.5351 32.8055 17.1998 32.8127 17.875C32.8127 20.3644 30.9271 22.25 28.4377 22.25H6.56274C4.07337 22.25 2.18774 20.3644 2.18774 17.875C2.18774 15.6656 3.77368 13.9506 5.77524 13.6028L6.49384 13.4661L6.63056 12.7464C6.95868 11.2731 8.26462 10.2188 9.84399 10.2188H10.9377V9.125C10.9377 5.43906 13.8143 2.5625 17.5002 2.5625ZM17.5002 8.68094L16.7127 9.43234L12.3377 13.8073L13.9127 15.3823L16.4065 12.8842V20.0625H18.594V12.8842L21.0877 15.3802L22.6627 13.8052L18.2877 9.43016L17.5002 8.68094Z" fill="#030404"/>
</svg>
