<svg width="73" height="95" viewBox="0 0 73 95" fill="none" xmlns="http://www.w3.org/2000/svg">
<rect width="72.2314" height="95" fill="#1E1E1E"/>
<path d="M23.4888 21L21.1473 9.73293H23.8868L24.9764 16.7266H25.0112L26.4022 9.73293H28.9485L30.2313 16.7266H30.2622L31.5295 9.73293H33.7126L31.2591 21H28.8248L27.4956 13.5157H27.4609L25.9424 21H23.4888ZM34.3463 21V13.0559H36.908V21H34.3463ZM34.3463 12.0088V9.73293H36.908V12.0088H34.3463ZM38.415 19.1801V14.8603H37.3717V13.0559H38.415V10.2082H40.9806V13.0559H42.387V14.8603H40.9806V18.2296C40.9806 18.464 40.9935 18.6443 41.0192 18.7705C41.045 18.8942 41.1171 18.9959 41.2356 19.0758C41.3567 19.1556 41.546 19.1956 41.8036 19.1956C41.9994 19.1956 42.1938 19.1698 42.387 19.1183V20.9845C41.9028 21.1211 41.3026 21.1893 40.5865 21.1893C39.1388 21.1893 38.415 20.5196 38.415 19.1801ZM43.2023 21V9.73293H45.7679V14.1146H45.7988C46.3527 13.2825 47.1074 12.8665 48.0631 12.8665C48.5782 12.8665 48.9891 13.0288 49.2956 13.3534C49.6022 13.678 49.7554 14.112 49.7554 14.6555V21H47.1898V15.3819C47.1898 14.908 46.985 14.671 46.5755 14.671C46.305 14.671 46.0835 14.7817 45.9109 15.0033L45.7679 15.1926V21H43.2023Z" fill="white"/>
<path d="M36.4902 32.4375V31.9004C36.4902 31.6402 36.4335 31.42 36.3202 31.2397C36.2069 31.0568 36.042 30.9653 35.8256 30.9653C35.5655 30.9653 35.3684 31.0696 35.2344 31.2783C35.1031 31.4869 35.0206 31.7317 34.9872 32.0124L32.7577 31.5526C32.8504 31.0529 33.0514 30.6382 33.3605 30.3085C33.6696 29.9787 34.0469 29.7379 34.4926 29.5859C34.9382 29.4314 35.4148 29.3541 35.9222 29.3541C36.4683 29.3541 36.9783 29.4378 37.4523 29.6052C37.9289 29.7701 38.3152 30.0354 38.6115 30.4012C38.9077 30.767 39.0558 31.2242 39.0558 31.7729V36.2047C39.0558 36.8693 39.1344 37.2969 39.2915 37.4875H36.6486C36.628 37.3948 36.61 37.2544 36.5945 37.0664C36.5817 36.8783 36.5739 36.7766 36.5713 36.7611C36.0484 37.3716 35.4045 37.6769 34.6394 37.6769C33.9413 37.6769 33.3862 37.4631 32.9741 37.0355C32.5645 36.6053 32.3597 36.0064 32.3597 35.2388C32.3597 34.5793 32.5709 34.0423 32.9934 33.6275C33.4158 33.2128 33.9413 32.9153 34.5699 32.735C35.201 32.5547 35.8411 32.4555 36.4902 32.4375ZM36.4902 35.4629V33.6739C36.1141 33.71 35.8179 33.7666 35.6015 33.8439C35.3877 33.9186 35.2216 34.0564 35.1031 34.2573C34.9846 34.4583 34.9253 34.7442 34.9253 35.1151C34.9253 35.3882 34.991 35.5994 35.1224 35.7488C35.2563 35.8956 35.4392 35.969 35.6711 35.969C35.9261 35.969 36.1991 35.8003 36.4902 35.4629Z" fill="white"/>
<path d="M24.9989 85.3801V74.1131H31.7916V76.2962H27.8504V78.5758H30.6517V80.7589H27.8504V85.3801H24.9989ZM38.9822 81.9761H34.6933C34.6933 83.2331 35.0784 83.8616 35.8486 83.8616C36.1552 83.8616 36.4282 83.7612 36.6678 83.5602C36.9099 83.3567 37.0696 83.0927 37.1469 82.7681L38.8702 83.4018C38.8084 83.6182 38.6641 83.8938 38.4374 84.2287C38.2108 84.561 37.8669 84.8675 37.4058 85.1483C36.9473 85.4291 36.3754 85.5695 35.6902 85.5695C35.1003 85.5695 34.58 85.46 34.1292 85.241C33.6784 85.0195 33.3036 84.713 33.0048 84.3214C32.7086 83.9299 32.4884 83.4855 32.3441 82.9884C32.1999 82.4887 32.1277 81.9567 32.1277 81.3926C32.1277 80.8233 32.2011 80.2888 32.348 79.7891C32.4974 79.2868 32.7215 78.845 33.0203 78.4638C33.3191 78.0825 33.69 77.785 34.1331 77.5712C34.5787 77.3549 35.0875 77.2467 35.6593 77.2467C36.4347 77.2467 37.0709 77.4437 37.5681 77.8378C38.0678 78.232 38.4284 78.7458 38.65 79.3795C38.8715 80.0106 38.9822 80.6971 38.9822 81.439V81.9761ZM34.6933 80.4575H36.6098C36.5995 79.9604 36.5338 79.5701 36.4128 79.2868C36.2943 79.0009 36.038 78.8579 35.6439 78.8579C35.309 78.8579 35.0668 79.015 34.9174 79.3293C34.768 79.641 34.6933 80.0171 34.6933 80.4575ZM46.3082 81.9761H42.0193C42.0193 83.2331 42.4044 83.8616 43.1746 83.8616C43.4811 83.8616 43.7541 83.7612 43.9937 83.5602C44.2358 83.3567 44.3955 83.0927 44.4728 82.7681L46.1961 83.4018C46.1343 83.6182 45.99 83.8938 45.7633 84.2287C45.5367 84.561 45.1928 84.8675 44.7317 85.1483C44.2732 85.4291 43.7013 85.5695 43.0161 85.5695C42.4262 85.5695 41.9059 85.46 41.4551 85.241C41.0043 85.0195 40.6295 84.713 40.3307 84.3214C40.0345 83.9299 39.8143 83.4855 39.67 82.9884C39.5258 82.4887 39.4536 81.9567 39.4536 81.3926C39.4536 80.8233 39.5271 80.2888 39.6739 79.7891C39.8233 79.2868 40.0474 78.845 40.3462 78.4638C40.645 78.0825 41.0159 77.785 41.459 77.5712C41.9046 77.3549 42.4134 77.2467 42.9852 77.2467C43.7606 77.2467 44.3968 77.4437 44.894 77.8378C45.3937 78.232 45.7543 78.7458 45.9759 79.3795C46.1974 80.0106 46.3082 80.6971 46.3082 81.439V81.9761ZM42.0193 80.4575H43.9357C43.9254 79.9604 43.8597 79.5701 43.7387 79.2868C43.6202 79.0009 43.3639 78.8579 42.9698 78.8579C42.6349 78.8579 42.3928 79.015 42.2434 79.3293C42.094 79.641 42.0193 80.0171 42.0193 80.4575Z" fill="white"/>
<path d="M7.72641 53.1901V41.923H11.9689C12.6979 41.923 13.3484 42.0389 13.9202 42.2707C14.4921 42.5 14.9403 42.8555 15.2648 43.3372C15.5894 43.8163 15.7517 44.41 15.7517 45.1184C15.7517 45.7057 15.5791 46.2325 15.2339 46.6987C14.8888 47.1624 14.4341 47.5011 13.87 47.7149L15.7517 53.1901H12.9349L11.5246 48.3138H10.578V53.1901H7.72641ZM10.578 44.0095V46.5094H11.1305C12.3128 46.5094 12.904 46.0986 12.904 45.2768C12.904 44.7462 12.743 44.4023 12.421 44.2452C12.1016 44.0881 11.6457 44.0095 11.0532 44.0095H10.578ZM16.5206 53.1901V41.923H23.6108V44.1061H19.3721V46.3858H22.2198V48.5689H19.3721V50.9104H23.6108V53.1901H16.5206ZM23.5644 53.1901L26.2073 41.923H29.9437L32.347 53.1901H29.4684L29.0241 50.9104H26.4121L25.9214 53.1901H23.5644ZM27.7761 44.3263L26.8101 48.9166H28.63L27.807 44.3263H27.7761ZM32.9343 53.1901V41.923H35.7859V51.1963H39.6459V53.1901H32.9343ZM40.5539 53.1901V41.923H43.4055V51.1963H47.2655V53.1901H40.5539ZM50.1209 53.1901V48.8046L47.3041 41.923H50.2793L51.7669 46.3549L53.5559 41.923H56.0867L52.9724 48.6461V53.1901H50.1209Z" fill="white"/>
<path d="M35.2059 69.6777V58.4107H38.0574V67.684H41.9175V69.6777H35.2059ZM42.2575 64.0442C42.2575 63.2817 42.3322 62.5553 42.4816 61.865C42.6336 61.1746 42.8796 60.55 43.2196 59.991C43.5622 59.432 44.0181 58.9915 44.5874 58.6695C45.1567 58.3476 45.8419 58.1866 46.643 58.1866C47.4492 58.1866 48.137 58.3488 48.7063 58.6734C49.2756 58.9954 49.7289 59.4346 50.0664 59.991C50.4064 60.5448 50.6511 61.1643 50.8005 61.8495C50.9499 62.5347 51.0246 63.2663 51.0246 64.0442C51.0246 65.09 50.8842 66.0521 50.6035 66.9305C50.3253 67.8089 49.859 68.5237 49.2047 69.075C48.5504 69.6236 47.6965 69.898 46.643 69.898C45.5869 69.898 44.7316 69.6236 44.0774 69.075C43.4231 68.5237 42.9556 67.8089 42.6748 66.9305C42.3966 66.0521 42.2575 65.09 42.2575 64.0442ZM45.3293 64.0442C45.3293 64.9767 45.3499 65.6876 45.3911 66.1771C45.4323 66.6639 45.5482 67.058 45.7388 67.3594C45.9295 67.6608 46.2308 67.8115 46.643 67.8115C47.0551 67.8115 47.3565 67.6608 47.5471 67.3594C47.7377 67.058 47.8537 66.6639 47.8949 66.1771C47.9361 65.6876 47.9567 64.9767 47.9567 64.0442C47.9567 63.3332 47.9477 62.7794 47.9297 62.3827C47.9142 61.986 47.8665 61.6254 47.7867 61.3008C47.7068 60.9737 47.5755 60.7213 47.3926 60.5435C47.2097 60.3658 46.9598 60.2769 46.643 60.2769C46.3261 60.2769 46.0763 60.3658 45.8934 60.5435C45.7131 60.7213 45.583 60.9711 45.5031 61.2931C45.4259 61.6151 45.3769 61.977 45.3563 62.3789C45.3383 62.7781 45.3293 63.3332 45.3293 64.0442ZM53.5439 69.6777L51.2024 58.4107H53.9418L55.0315 65.4043H55.0662L56.4572 58.4107H59.0035L60.2863 65.4043H60.3172L61.5846 58.4107H63.7677L61.3141 69.6777H58.8799L57.5507 62.1934H57.5159L55.9974 69.6777H53.5439Z" fill="white"/>
</svg>
