<svg width="46" height="44" viewBox="0 0 46 44" fill="none" xmlns="http://www.w3.org/2000/svg">
<rect x="1.5" y="1.5" width="43" height="41" rx="8.5" fill="url(#paint0_linear_34_69)" stroke="url(#paint1_linear_34_69)" stroke-width="3"/>
<path d="M12.333 30C12.333 28.5855 12.8949 27.2289 13.8951 26.2287C14.8953 25.2285 16.2519 24.6666 17.6663 24.6666H28.333C29.7475 24.6666 31.104 25.2285 32.1042 26.2287C33.1044 27.2289 33.6663 28.5855 33.6663 30C33.6663 30.7072 33.3854 31.3855 32.8853 31.8856C32.3852 32.3857 31.7069 32.6666 30.9997 32.6666H14.9997C14.2924 32.6666 13.6142 32.3857 13.1141 31.8856C12.614 31.3855 12.333 30.7072 12.333 30Z" stroke="white" stroke-opacity="0.94" stroke-width="1.33333" stroke-linejoin="round"/>
<path d="M23 19.3334C25.2091 19.3334 27 17.5425 27 15.3334C27 13.1242 25.2091 11.3334 23 11.3334C20.7909 11.3334 19 13.1242 19 15.3334C19 17.5425 20.7909 19.3334 23 19.3334Z" stroke="white" stroke-opacity="0.94" stroke-width="1.33333"/>
<defs>
<linearGradient id="paint0_linear_34_69" x1="2.33333" y1="6.99999" x2="47.0654" y2="8.5935" gradientUnits="userSpaceOnUse">
<stop stop-color="#B15556" stop-opacity="0.39"/>
<stop offset="1" stop-color="#B15556" stop-opacity="0.41"/>
</linearGradient>
<linearGradient id="paint1_linear_34_69" x1="5.77778" y1="3.99997" x2="46.5054" y2="5.82034" gradientUnits="userSpaceOnUse">
<stop stop-color="#B15556"/>
<stop offset="1" stop-color="#F99495" stop-opacity="0.94"/>
</linearGradient>
</defs>
</svg>
